<svg width="81" height="72" viewBox="0 0 81 72" fill="none" xmlns="http://www.w3.org/2000/svg">
<path d="M40.5266 71.4304C28.8075 71.4304 17.0884 71.4304 5.36928 71.4304C4.79682 71.4304 4.21695 71.4304 3.64202 71.3712C0.70813 71.0973 -0.471347 69.1208 0.779688 66.4485C1.8654 64.1414 3.04981 61.8935 4.19968 59.611C9.62823 48.8641 15.0568 38.1189 20.4853 27.3753C20.6531 27.0471 20.8283 26.7189 21.0233 26.4055C22.3903 24.2144 24.611 23.9059 26.3605 25.796C27.5943 27.1186 28.638 28.6041 29.7386 30.0377C35.3316 37.3465 40.9247 44.6586 46.5177 51.974C48.9606 55.1571 52.0376 55.3298 54.9073 52.4675C56.3311 51.0462 57.7228 49.5879 59.1638 48.179C61.7621 45.6374 64.7108 45.7904 66.8328 48.7539C71.0918 54.7006 75.2446 60.7263 79.4172 66.7323C79.7433 67.2035 79.9931 67.7231 80.1575 68.272C80.5622 69.6514 79.9897 70.7617 78.5906 71.1294C77.7133 71.3394 76.8128 71.4364 75.9109 71.4181C64.1227 71.4378 52.3279 71.442 40.5266 71.4304Z" fill="#D4D2E3"/>
<path d="M66.8081 12.543C66.8051 14.8368 66.1211 17.0781 64.8428 18.9828C63.5644 20.8874 61.7493 22.3695 59.6276 23.2413C57.5059 24.1131 55.1731 24.3353 52.9249 23.8796C50.6768 23.424 48.6146 22.3111 46.9997 20.682C45.3848 19.0529 44.29 16.981 43.8541 14.729C43.4182 12.4769 43.6608 10.1462 44.5511 8.03217C45.4415 5.91816 46.9395 4.11612 48.8552 2.85451C50.771 1.5929 53.0182 0.928533 55.312 0.945635C58.3664 0.984449 61.2832 2.22195 63.4337 4.39136C65.5842 6.56078 66.7961 9.48836 66.8081 12.543Z" fill="#D4D2E3"/>
</svg>
